<?xml version="1.0" encoding="utf-8"?>
<!-- Generator: Adobe Illustrator 19.0.0, SVG Export Plug-In . SVG Version: 6.00 Build 0)  -->
<svg version="1.1" xmlns="http://www.w3.org/2000/svg" xmlns:xlink="http://www.w3.org/1999/xlink" x="0px" y="0px"
	 viewBox="0 0 369.7 161.4" style="enable-background:new 0 0 369.7 161.4;" xml:space="preserve">
<style type="text/css">
	.st0{fill:#29ABE2;}
	.st1{fill:#FFFFFF;}
	.st2{font-family:'SignPainter-HouseScript';}
	.st3{font-size:89px;}
</style>
<g id="Layer_2">
	<circle id="XMLID_2_" class="st0" cx="46.1" cy="75.8" r="43.1"/>
	<circle id="XMLID_3_" class="st0" cx="84.3" cy="43.5" r="29.4"/>
	<circle id="XMLID_4_" class="st0" cx="99.8" cy="89.4" r="41"/>
	<circle id="XMLID_5_" class="st0" cx="119.2" cy="30" r="30"/>
	<circle id="XMLID_6_" class="st0" cx="158.7" cy="35.3" r="27.9"/>
	<circle id="XMLID_7_" class="st0" cx="150" cy="75" r="30.8"/>
	<circle id="XMLID_8_" class="st0" cx="144.5" cy="111.5" r="25.3"/>
	<circle id="XMLID_9_" class="st0" cx="176.4" cy="79.4" r="26.4"/>
	<circle id="XMLID_10_" class="st0" cx="184.6" cy="68.4" r="30.4"/>
	<circle id="XMLID_11_" class="st0" cx="219.3" cy="57.4" r="22.1"/>
	<circle id="XMLID_12_" class="st0" cx="206.3" cy="37.1" r="25.5"/>
	<circle id="XMLID_13_" class="st0" cx="234.7" cy="70.6" r="23.5"/>
	<circle id="XMLID_14_" class="st0" cx="214" cy="94.5" r="27.4"/>
	<circle id="XMLID_15_" class="st0" cx="240.1" cy="54.8" r="29"/>
	<circle id="XMLID_16_" class="st0" cx="190.2" cy="113" r="23.8"/>
	<circle id="XMLID_17_" class="st0" cx="250.1" cy="93.9" r="24.2"/>
	<circle id="XMLID_18_" class="st0" cx="273.3" cy="76.6" r="19.1"/>
	<circle id="XMLID_19_" class="st0" cx="277.8" cy="49.5" r="23.6"/>
	<circle id="XMLID_20_" class="st0" cx="285.8" cy="75.8" r="35.6"/>
	<circle id="XMLID_21_" class="st0" cx="287.2" cy="105.2" r="20.6"/>
	<circle id="XMLID_22_" class="st0" cx="242.1" cy="113.5" r="27.1"/>
	<circle id="XMLID_23_" class="st0" cx="305.6" cy="68.2" r="19.8"/>
	<circle id="XMLID_24_" class="st0" cx="311.4" cy="101.5" r="10"/>
	<circle id="XMLID_25_" class="st0" cx="325.8" cy="83.6" r="19.4"/>
	<circle id="XMLID_26_" class="st0" cx="309.7" cy="45.9" r="24"/>
	<circle id="XMLID_27_" class="st0" cx="318.9" cy="107.1" r="11"/>
	<circle id="XMLID_28_" class="st0" cx="334.1" cy="76.1" r="35.5"/>
	<circle id="XMLID_29_" class="st0" cx="246.3" cy="31.9" r="20.3"/>
	<circle id="XMLID_30_" class="st0" cx="313.3" cy="105" r="20.9"/>
	<circle id="XMLID_31_" class="st0" cx="25.7" cy="131.5" r="9.7"/>
	<circle id="XMLID_32_" class="st0" cx="13" cy="145.6" r="5"/>
	<circle id="XMLID_33_" class="st0" cx="3.6" cy="154.8" r="3.6"/>
</g>
<g id="Layer_1">
	<text id="XMLID_1_" transform="matrix(1 0 0 1 36.9209 98.8067)" class="st1 st2 st3">WishuListu</text>
</g>
</svg>
