<?xml version="1.0" encoding="utf-8"?>
<!-- Generator: Adobe Illustrator 19.0.0, SVG Export Plug-In . SVG Version: 6.00 Build 0)  -->
<svg version="1.1" id="Capa_1" xmlns="http://www.w3.org/2000/svg" xmlns:xlink="http://www.w3.org/1999/xlink" x="0px" y="0px"
	 viewBox="233 -154 359 359" style="enable-background:new 233 -154 359 359;" xml:space="preserve">
<style type="text/css">
	.st0{fill:#FFFFFF;}
	.st1{fill:#276FBF;}
</style>
<path class="st0" d="M585-44.2v-36.4c0-0.3,0-0.7-0.1-1c-3.2-28.1-89.9-43.3-170.8-43.3c-80.8,0-167.5,15.1-170.8,43.2
	c-0.1,0.3-0.1,0.6-0.1,1v36.4c0,1.2,0.6,2.4,1.7,3.1L369,37.1v135c0,1.1,0.5,2.2,1.5,2.9c0.6,0.5,1.4,0.7,2.2,0.7
	c0.4,0,0.7,0,1.1-0.2l82.8-25.5c1.5-0.5,2.6-1.9,2.6-3.5V37.1l124.2-78.3C584.3-41.8,585-43,585-44.2z"/>
<path class="st1" d="M546.8-80c-14.5,4.7-27.7,8.2-40.5,10.6c-6.1,1.1-12.5,2.1-18.6,3.1c-22.6,2.6-48.5,3.9-74.9,3.9
	c-91.3,0-139.1-14.6-139.1-22.4s47.8-22.4,139.1-22.4c91.3,0,139.1,14.6,139.1,22.4C551.8-83.9,550.3-82,546.8-80z"/>
</svg>
