<?xml version="1.0" encoding="utf-8"?>
<!-- Generator: Adobe Illustrator 19.0.0, SVG Export Plug-In . SVG Version: 6.00 Build 0)  -->
<svg version="1.1" id="Layer_1" xmlns="http://www.w3.org/2000/svg" xmlns:xlink="http://www.w3.org/1999/xlink" x="0px" y="0px"
	 viewBox="335.4 465.4 200 200" style="enable-background:new 335.4 465.4 200 200;" xml:space="preserve">
<style type="text/css">
	.st0{fill:#FFFFFF;}
	.st1{fill:#1DA1F2;}
</style>
<rect x="335.4" y="465.4" class="st0" width="200" height="200"/>
<g transform="translate(-539.18 -568.86)">
	<path class="st1" d="M939.3,1211.3c71.6,0,110.7-59.3,110.7-110.7c0-1.7-0.1-3.4-0.1-5c7.6-5.5,14.2-12.3,19.4-20.2
		c-7,3.1-14.4,5.2-22.3,6.1c8-4.8,14.2-12.4,17.1-21.5c-7.5,4.5-15.8,7.7-24.7,9.4c-7.1-7.6-17.2-12.3-28.4-12.3
		c-21.5,0-38.9,17.4-38.9,38.9c0,3.1,0.3,6,1,8.8c-32.3-1.7-61-17.1-80.2-40.7c-3.4,5.7-5.3,12.4-5.3,19.5
		c0,13.5,6.9,25.4,17.3,32.4c-6.4-0.2-12.4-2-17.6-4.8c0,0.2,0,0.3,0,0.5c0,18.8,13.4,34.6,31.2,38.1c-3.2,0.9-6.7,1.4-10.2,1.4
		c-2.5,0-5-0.3-7.3-0.7c5,15.5,19.3,26.7,36.3,27c-13.3,10.4-30.1,16.7-48.3,16.7c-3.1,0-6.2-0.2-9.3-0.5
		C896.9,1204.8,917.4,1211.3,939.3,1211.3"/>
</g>
</svg>
